<svg xmlns="http://www.w3.org/2000/svg" viewBox="0 0 800 800">
  <g transform="translate(177.227051,637.544066) scale(0.057715,-0.057715)" fill="currentColor" stroke="none">
    <path d="M449 7697 c-191 -79 -266 -257 -210 -498 26 -108 140 -575 306 -1249 194 -786 496 -2022 661 -2700 58 -239 116 -463 130 -498 64 -163 176 -280 349 -363 65 -32 127 -49 335 -93 140 -30 543 -116 895 -191 667 -141 907 -194 913 -200 2 -2 -4 -25 -13 -52 -26 -73 -31 -205 -11 -282 34 -131 49 -148 639 -717 242 -233 327 -301 406 -325 61 -18 165 -22 222 -9 125 29 131 34 736 649 312 317 708 718 879 891 573 580 709 721 742 773 54 85 76 173 70 281 -6 100 -27 165 -81 247 -18 29 -199 209 -417 417 -411 391 -441 415 -571 448 -48 12 -87 15 -155 11 l-90 -6 -56 282 c-118 591 -317 1567 -328 1608 -47 174 -177 342 -341 440 -111 66 -3 39 -1754 444 -176 41 -516 120 -755 175 -239 56 -520 121 -625 145 -374 86 -1361 318 -1595 374 -115 28 -209 27 -281 -2z m643 -512 c167 -40 618 -145 1328 -310 278 -64 757 -175 1065 -247 746 -173 1066 -247 1390 -319 325 -73 367 -87 433 -145 73 -64 104 -135 142 -324 17 -85 69 -342 116 -570 46 -228 123 -604 170 -835 46 -231 87 -433 91 -448 5 -26 -15 -49 -278 -315 -275 -278 -451 -457 -1086 -1103 l-300 -307 -84 19 c-46 10 -235 51 -419 89 -353 75 -856 182 -1430 305 -387 83 -428 98 -490 177 -31 39 -42 66 -60 145 -12 54 -57 242 -100 418 -44 176 -99 403 -124 505 -25 102 -120 489 -211 860 -91 371 -224 914 -296 1205 -71 292 -147 599 -167 683 -21 83 -34 152 -29 152 8 0 97 -85 612 -590 455 -445 666 -651 1027 -1003 l366 -358 -20 -47 c-57 -128 -85 -376 -59 -524 66 -380 357 -686 736 -774 116 -27 341 -25 447 4 371 102 639 378 712 734 21 99 21 277 0 376 -55 269 -235 514 -475 646 -191 105 -414 145 -614 111 -162 -28 -348 -105 -445 -183 l-25 -20 -70 66 c-38 36 -146 140 -240 232 -93 91 -359 350 -590 575 -231 225 -548 535 -705 690 -157 154 -328 322 -380 373 -52 50 -92 92 -88 92 4 0 71 -16 150 -35z m2743 -2229 c171 -64 298 -212 339 -393 20 -88 20 -128 1 -218 -23 -111 -74 -202 -154 -278 -178 -168 -430 -203 -651 -92 -128 64 -225 176 -272 313 -32 94 -32 230 0 324 60 175 207 313 385 363 84 24 264 14 352 -19z m2519 -1136 c27 -10 711 -662 720 -686 3 -9 6 -31 6 -51 0 -30 -12 -47 -87 -126 -48 -51 -91 -97 -97 -102 -36 -35 -757 -767 -1236 -1255 -719 -732 -655 -670 -686 -670 -25 0 -72 43 -686 640 -73 71 -78 78 -78 118 0 43 2 45 263 310 582 592 1337 1360 1602 1631 204 208 215 216 279 191z"/>
  </g>
</svg>
